<?xml version="1.0" encoding="utf-8"?>
<!-- Generator: Adobe Illustrator 15.0.0, SVG Export Plug-In . SVG Version: 6.00 Build 0)  -->
<!DOCTYPE svg PUBLIC "-//W3C//DTD SVG 1.1//EN" "http://www.w3.org/Graphics/SVG/1.1/DTD/svg11.dtd">
<svg version="1.1" id="Logo" xmlns="http://www.w3.org/2000/svg" xmlns:xlink="http://www.w3.org/1999/xlink" x="0px" y="0px"
	 width="512px" height="512px" viewBox="0 0 512 512" enable-background="new 0 0 512 512" xml:space="preserve">
<path d="M482.697,510.895c15.568,0,28.195-12.626,28.195-28.195V28.197C510.893,12.622,498.266,0,482.697,0h-454.5
	C12.622,0,0,12.622,0,28.197v454.502c0,15.569,12.622,28.195,28.197,28.195H482.697z"/>
<path fill="#FFFFFF" d="M352.508,510.895V313.052h66.409l9.942-77.105h-76.352v-49.228c0-22.324,6.197-37.537,38.21-37.537
	l40.83-0.019V80.201c-7.062-0.937-31.299-3.038-59.494-3.038c-58.87,0-99.169,35.933-99.169,101.921v56.862h-66.579v77.105h66.579
	v197.843H352.508z"/>
</svg>
