<?xml version="1.0" encoding="utf-8"?>
<!-- Generator: Adobe Illustrator 15.0.0, SVG Export Plug-In . SVG Version: 6.00 Build 0)  -->
<!DOCTYPE svg PUBLIC "-//W3C//DTD SVG 1.1//EN" "http://www.w3.org/Graphics/SVG/1.1/DTD/svg11.dtd">
<svg version="1.1" id="Logo" xmlns="http://www.w3.org/2000/svg" xmlns:xlink="http://www.w3.org/1999/xlink" x="0px" y="0px"
	 width="512px" height="512px" viewBox="0 0 512 512" enable-background="new 0 0 512 512" xml:space="preserve">
<g>
	<path d="M256.75,46.467c67.999,0,76.054,0.258,102.908,1.484c24.831,1.133,38.315,5.282,47.289,8.768
		c11.887,4.621,20.37,10.14,29.283,19.051c8.912,8.911,14.43,17.396,19.05,29.282c3.487,8.974,7.638,22.46,8.769,47.289
		c1.226,26.854,1.486,34.909,1.486,102.909c0,67.999-0.261,76.055-1.486,102.908c-1.131,24.831-5.281,38.315-8.769,47.289
		c-4.619,11.887-10.138,20.37-19.05,29.283c-8.913,8.913-17.396,14.43-29.283,19.05c-8.974,3.487-22.458,7.638-47.289,8.77
		c-26.851,1.225-34.902,1.485-102.908,1.485c-68.005,0-76.058-0.261-102.908-1.485c-24.83-1.132-38.315-5.282-47.289-8.77
		c-11.887-4.619-20.371-10.137-29.282-19.05c-8.911-8.912-14.431-17.396-19.051-29.283c-3.487-8.974-7.635-22.458-8.768-47.288
		c-1.226-26.854-1.484-34.91-1.484-102.909c0-68,0.258-76.054,1.484-102.908c1.133-24.83,5.282-38.315,8.768-47.289
		c4.621-11.887,10.14-20.371,19.051-29.282s17.396-14.431,29.282-19.05c8.974-3.488,22.46-7.636,47.289-8.769
		C180.696,46.725,188.75,46.467,256.75,46.467 M256.75,0.58c-69.164,0-77.837,0.293-105,1.532
		C124.644,3.35,106.13,7.655,89.931,13.95c-16.746,6.509-30.948,15.215-45.107,29.374c-14.159,14.16-22.866,28.361-29.375,45.106
		c-6.295,16.199-10.601,34.712-11.837,61.818C2.372,177.413,2.08,186.085,2.08,255.25c0,69.165,0.293,77.837,1.533,105
		c1.237,27.106,5.542,45.62,11.837,61.818c6.509,16.746,15.215,30.949,29.375,45.107c14.158,14.158,28.361,22.865,45.107,29.375
		c16.199,6.296,34.712,10.601,61.819,11.837c27.164,1.24,35.836,1.533,105,1.533c69.165,0,77.837-0.293,105-1.533
		c27.107-1.236,45.62-5.541,61.818-11.837c16.747-6.509,30.949-15.217,45.107-29.375s22.865-28.36,29.375-45.107
		c6.296-16.198,10.6-34.712,11.837-61.818c1.24-27.163,1.533-35.835,1.533-105c0-69.164-0.293-77.837-1.533-105
		c-1.237-27.106-5.541-45.62-11.837-61.818c-6.509-16.747-15.217-30.949-29.375-45.108c-14.158-14.158-28.36-22.865-45.107-29.374
		c-16.198-6.295-34.711-10.601-61.818-11.838C334.587,0.872,325.915,0.58,256.75,0.58L256.75,0.58z"/>
	<path d="M256.75,124.473c-72.226,0-130.777,58.55-130.777,130.777c0,72.227,58.552,130.776,130.777,130.776
		c72.225,0,130.776-58.551,130.776-130.776C387.526,183.024,328.975,124.473,256.75,124.473z M256.75,340.14
		c-46.883,0-84.891-38.006-84.891-84.89c0-46.883,38.007-84.891,84.891-84.891c46.883,0,84.891,38.007,84.891,84.891
		C341.641,302.134,303.633,340.14,256.75,340.14z"/>
	<circle cx="392.695" cy="119.306" r="30.56"/>
</g>
</svg>
