<?xml version="1.0" encoding="utf-8"?>
<!-- Generator: Adobe Illustrator 15.0.0, SVG Export Plug-In . SVG Version: 6.00 Build 0)  -->
<!DOCTYPE svg PUBLIC "-//W3C//DTD SVG 1.1//EN" "http://www.w3.org/Graphics/SVG/1.1/DTD/svg11.dtd">
<svg version="1.1" id="Logo" xmlns="http://www.w3.org/2000/svg" xmlns:xlink="http://www.w3.org/1999/xlink" x="0px" y="0px"
	 width="512px" height="512px" viewBox="0 0 512 512" enable-background="new 0 0 512 512" xml:space="preserve">
<path d="M472.959,1.418H38.593C17.854,1.418,1,17.871,1,38.167v436.159c0,20.297,16.854,36.777,37.593,36.777h434.366
	c20.777,0,37.702-16.48,37.702-36.777V38.167C510.661,17.871,493.738,1.418,472.959,1.418z M152.186,435.725H76.518V192.49h75.668
	V435.725z M114.373,159.261c-24.278,0-43.854-19.64-43.854-43.842c0-24.195,19.577-43.834,43.854-43.834
	c24.181,0,43.814,19.639,43.814,43.834C158.187,139.622,138.555,159.261,114.373,159.261z M435.311,435.725h-75.587V317.442
	c0-28.203-0.485-64.496-39.277-64.496c-39.336,0-45.336,30.751-45.336,62.479v120.299h-75.5V192.49h72.458v33.252h1.035
	c10.079-19.122,34.745-39.287,71.522-39.287c76.538,0,90.685,50.361,90.685,115.876V435.725L435.311,435.725z"/>
</svg>
